<?xml version="1.0" encoding="utf-8"?>
<!-- Generator: Adobe Illustrator 13.0.0, SVG Export Plug-In . SVG Version: 6.00 Build 14948)  -->
<!DOCTYPE svg PUBLIC "-//W3C//DTD SVG 1.1//EN" "http://www.w3.org/Graphics/SVG/1.1/DTD/svg11.dtd">
<svg version="1.1" id="Layer_1" xmlns="http://www.w3.org/2000/svg" xmlns:xlink="http://www.w3.org/1999/xlink" x="0px" y="0px"
	 width="77.669px" height="77.669px" viewBox="0 0 77.669 77.669" enable-background="new 0 0 77.669 77.669" xml:space="preserve">
<rect fill="#002F66" width="77.669" height="77.669"/>
<g>
	<path fill="#6699C2" d="M71.07,10.896c-2.047-2.581-4.977-4.134-8.491-4.493c-0.522-0.054-33.126,0.019-33.126,0.019
		C13.924,6.472,8.348,17.974,6.411,24.833c-1.666,5.878-1.572,10.153-1.633,11.352c-0.013,0.198,0.036,0.447,0.165,0.503
		c0.179,0.079,0.436,0.009,0.787-0.321c0.381-0.358,6.834-6.864,7.777-7.715c0.939-0.846,5.049-4.854,12.269-4.871l24.466-0.073
		c-0.1,0.507-6.025,27.536-6.025,27.536c-0.911,3.548-3.52,5.537-8.033,5.88c0,0,7.187-32.716,7.198-32.77
		c0.024-0.056,0.014-0.126-0.082-0.12c-0.094,0.012-5.574,0.377-5.574,0.377c-8.668,0.962-16.677,8.127-18.607,16.663l-3.491,15.892
		c-5.156-0.006-8.45-0.817-10.528-1.194c-0.704-0.119-1.361-0.275-1.926-0.404c-0.228-0.05-0.43,0.152-0.322,0.361
		c0.726,1.426,2.413,5.286,4.793,8.377c3.214,4.186,8.272,6.618,14.795,7.289l16.379,0.192c23.534-0.073,25.248-8.049,27.066-16.496
		c0.158-0.734,7.406-33.202,7.406-33.202C74.25,17.893,73.458,13.913,71.07,10.896"/>
	<path fill="#002F66" d="M69.578,12.178c-2.007-2.543-5.044-3.949-8.711-3.932L29.337,8.35C18.336,8.38,11.625,15.295,9.22,21.214
		c-1.503,3.698-1.95,6.007-2.239,7.546c0,0-0.584,3.539-0.645,4.651c-0.016,0.158-0.034,0.229,0.053,0.28
		c0.051,0.028,0.126,0.019,0.249-0.083c0.645-0.591,2.311-2.465,2.709-2.873c1.343-1.357,3.828-3.931,5.408-5.036
		c1.967-1.376,6.023-3.687,11.142-3.701l25.457-0.076c0.455-0.006,0.737,0.11,0.764,0.168c0.344,0.434,0.044,1.168,0.044,1.168
		L46.022,51.59c-1.176,4.639-5.037,7.093-11.874,7.268c0,0,6.998-32.344,7.022-32.474c0.029-0.153-0.051-0.252-0.224-0.233
		c-0.176,0.011-3.135,0.316-3.135,0.316c-7.866,0.871-15.117,7.36-16.877,15.085l-3.037,13.853l-0.824,3.496l-0.926,0.006
		C14.28,58.91,11.925,58.809,7.275,58c-0.809-0.14-1.205-0.275-1.309-0.164c-0.081,0.113-0.057,0.265,0.132,0.679
		c0.082,0.177,1.569,3.854,5.271,7.208c2.302,2.072,6.141,3.492,11.123,4.002c2.733,0.279,5.66,0.315,8.426,0.305l4.232-0.012
		c19.685-0.065,25.883-2.043,28.943-15.076l7.387-33.069C72.313,18.217,71.638,14.773,69.578,12.178"/>
	<path fill="#C1AB86" d="M60.775,10.076L29.24,10.177C13.156,10.225,9.662,25.052,9.499,25.647
		c-0.177,0.594-0.681,2.998-0.718,3.173c-0.048,0.171,0.015,0.252,0.17,0.086c0.163-0.172,2.225-2.373,2.225-2.373
		c0.047-0.061,5.873-6.203,14.796-6.228l25.468-0.079c0.969-0.003,1.683,0.258,2.103,0.808c0.836,1.088,0.338,3.013-0.167,5.058
		c-0.127,0.494-5.634,25.906-5.634,25.906c-2.072,8.29-11.474,8.318-14.574,8.326l-0.887,0.006c0,0,6.863-32.16,6.883-32.301
		c0.025-0.142-0.108-0.209-0.246-0.193c-0.133,0.013-1.017,0.111-1.017,0.111c-7.231,0.803-13.898,6.753-15.5,13.846l-4.285,18.573
		c-1.756-0.011-3.679-0.054-5.319-0.224c-0.989-0.101-4.064-0.632-4.295-0.671c-0.223-0.049-0.296,0.064-0.176,0.238
		c0.121,0.18,0.979,1.513,0.979,1.513c2.825,4.144,7.387,6.612,13.035,6.909c5.642,0.301,9.804,0.15,13.861,0.211
		c11.788,0.159,22.934,0.109,26.175-13.611l7.381-33.097c0.707-3.13,0.137-6.062-1.593-8.248
		C66.494,11.267,63.816,10.065,60.775,10.076"/>
	<path fill="#FFFFFF" d="M22.271,68.115c-0.012,0.123-0.125,0.215-0.25,0.202c-0.125-0.013-0.215-0.126-0.203-0.249
		c0.013-0.126,0.125-0.217,0.249-0.203C22.19,67.877,22.283,67.989,22.271,68.115"/>
</g>
</svg>
